<svg width="24" height="24" viewBox="0 0 24 24" fill="none" xmlns="http://www.w3.org/2000/svg">
<path fill-rule="evenodd" clip-rule="evenodd" d="M14.4239 12L23.4973 2.92661C24.1676 2.25635 24.1676 1.17296 23.4973 0.502696C22.827 -0.167565 21.7437 -0.167565 21.0734 0.502696L12 9.57609L2.92661 0.502696C2.25635 -0.167565 1.17296 -0.167565 0.502696 0.502696C-0.167565 1.17296 -0.167565 2.25635 0.502696 2.92661L9.57609 12L0.502696 21.0734C-0.167565 21.7437 -0.167565 22.827 0.502696 23.4973C0.83697 23.8316 1.27581 23.9996 1.71465 23.9996C2.15349 23.9996 2.59234 23.8316 2.92661 23.4973L12 14.4239L21.0734 23.4973C21.4077 23.8316 21.8465 23.9996 22.2853 23.9996C22.7242 23.9996 23.163 23.8316 23.4973 23.4973C24.1676 22.827 24.1676 21.7437 23.4973 21.0734L14.4239 12Z" fill="white"/>
</svg>
